<?xml version="1.0" encoding="UTF-8" standalone="no"?>
<!DOCTYPE svg PUBLIC "-//W3C//DTD SVG 1.1//EN"
 "http://www.w3.org/Graphics/SVG/1.1/DTD/svg11.dtd">
<!-- Generated by graphviz version 2.47.3 (20210619.1520)
 -->
<!-- Title: dependencies Pages: 1 -->
<svg width="2860pt" height="247pt"
 viewBox="0.00 0.00 2860.00 246.80" xmlns="http://www.w3.org/2000/svg" xmlns:xlink="http://www.w3.org/1999/xlink">
<g id="graph0" class="graph" transform="scale(1 1) rotate(0) translate(4 242.8)">
<title>dependencies</title>
<polygon fill="white" stroke="transparent" points="-4,4 -4,-242.8 2856,-242.8 2856,4 -4,4"/>
<text text-anchor="middle" x="1426" y="-8.2" font-family="sans-serif" font-size="14.00">dependencies</text>
<g id="clust1" class="cluster">
<title>cluster_AppModule</title>
<polygon fill="none" stroke="black" stroke-dasharray="1,5" points="8,-32.8 8,-230.8 2844,-230.8 2844,-32.8 8,-32.8"/>
</g>
<g id="clust23" class="cluster">
<title>cluster_AppModule_bootstrap</title>
<polygon fill="none" stroke="black" points="1448,-170.8 1448,-222.8 1572,-222.8 1572,-170.8 1448,-170.8"/>
</g>
<g id="clust21" class="cluster">
<title>cluster_AppModule_imports</title>
<polygon fill="none" stroke="black" points="2692,-40.8 2692,-92.8 2836,-92.8 2836,-40.8 2692,-40.8"/>
</g>
<g id="clust2" class="cluster">
<title>cluster_AppModule_declarations</title>
<polygon fill="none" stroke="black" points="16,-40.8 16,-92.8 2684,-92.8 2684,-40.8 16,-40.8"/>
</g>
<!-- AlertasComponent -->
<g id="node1" class="node">
<title>AlertasComponent</title>
<polygon fill="#ffffb3" stroke="black" points="2675.75,-84.8 2554.25,-84.8 2554.25,-48.8 2675.75,-48.8 2675.75,-84.8"/>
<text text-anchor="middle" x="2615" y="-62.6" font-family="Times,serif" font-size="14.00">AlertasComponent</text>
</g>
<!-- AppModule -->
<g id="node19" class="node">
<title>AppModule</title>
<polygon fill="#8dd3c7" stroke="black" points="1551.66,-149.8 1548.66,-153.8 1527.66,-153.8 1524.66,-149.8 1468.34,-149.8 1468.34,-113.8 1551.66,-113.8 1551.66,-149.8"/>
<text text-anchor="middle" x="1510" y="-127.6" font-family="Times,serif" font-size="14.00">AppModule</text>
</g>
<!-- AlertasComponent&#45;&gt;AppModule -->
<g id="edge1" class="edge">
<title>AlertasComponent&#45;&gt;AppModule</title>
<path fill="none" stroke="black" d="M2615,-84.81C2615,-107.29 2615,-142.8 2615,-142.8 2615,-142.8 1561.97,-142.8 1561.97,-142.8"/>
<polygon fill="black" stroke="black" points="1561.97,-139.3 1551.97,-142.8 1561.97,-146.3 1561.97,-139.3"/>
</g>
<!-- AppComponent -->
<g id="node2" class="node">
<title>AppComponent</title>
<polygon fill="#ffffb3" stroke="black" points="2535.94,-84.8 2430.06,-84.8 2430.06,-48.8 2535.94,-48.8 2535.94,-84.8"/>
<text text-anchor="middle" x="2483" y="-62.6" font-family="Times,serif" font-size="14.00">AppComponent</text>
</g>
<!-- AppComponent&#45;&gt;AppModule -->
<g id="edge2" class="edge">
<title>AppComponent&#45;&gt;AppModule</title>
<path fill="none" stroke="black" d="M2483,-84.84C2483,-106.46 2483,-139.8 2483,-139.8 2483,-139.8 1561.81,-139.8 1561.81,-139.8"/>
<polygon fill="black" stroke="black" points="1561.81,-136.3 1551.81,-139.8 1561.81,-143.3 1561.81,-136.3"/>
</g>
<!-- ContatoComponent -->
<g id="node3" class="node">
<title>ContatoComponent</title>
<polygon fill="#ffffb3" stroke="black" points="2411.67,-84.8 2286.33,-84.8 2286.33,-48.8 2411.67,-48.8 2411.67,-84.8"/>
<text text-anchor="middle" x="2349" y="-62.6" font-family="Times,serif" font-size="14.00">ContatoComponent</text>
</g>
<!-- ContatoComponent&#45;&gt;AppModule -->
<g id="edge3" class="edge">
<title>ContatoComponent&#45;&gt;AppModule</title>
<path fill="none" stroke="black" d="M2349,-84.93C2349,-105.37 2349,-135.8 2349,-135.8 2349,-135.8 1561.89,-135.8 1561.89,-135.8"/>
<polygon fill="black" stroke="black" points="1561.89,-132.3 1551.89,-135.8 1561.89,-139.3 1561.89,-132.3"/>
</g>
<!-- DicasComponent -->
<g id="node4" class="node">
<title>DicasComponent</title>
<polygon fill="#ffffb3" stroke="black" points="2268.7,-84.8 2155.3,-84.8 2155.3,-48.8 2268.7,-48.8 2268.7,-84.8"/>
<text text-anchor="middle" x="2212" y="-62.6" font-family="Times,serif" font-size="14.00">DicasComponent</text>
</g>
<!-- DicasComponent&#45;&gt;AppModule -->
<g id="edge4" class="edge">
<title>DicasComponent&#45;&gt;AppModule</title>
<path fill="none" stroke="black" d="M2212,-84.91C2212,-104.14 2212,-131.8 2212,-131.8 2212,-131.8 1561.81,-131.8 1561.81,-131.8"/>
<polygon fill="black" stroke="black" points="1561.81,-128.3 1551.81,-131.8 1561.81,-135.3 1561.81,-128.3"/>
</g>
<!-- EntrarComponent -->
<g id="node5" class="node">
<title>EntrarComponent</title>
<polygon fill="#ffffb3" stroke="black" points="2137.31,-84.8 2020.69,-84.8 2020.69,-48.8 2137.31,-48.8 2137.31,-84.8"/>
<text text-anchor="middle" x="2079" y="-62.6" font-family="Times,serif" font-size="14.00">EntrarComponent</text>
</g>
<!-- EntrarComponent&#45;&gt;AppModule -->
<g id="edge5" class="edge">
<title>EntrarComponent&#45;&gt;AppModule</title>
<path fill="none" stroke="black" d="M2079,-85.07C2079,-103.36 2079,-128.8 2079,-128.8 2079,-128.8 1561.84,-128.8 1561.84,-128.8"/>
<polygon fill="black" stroke="black" points="1561.84,-125.3 1551.84,-128.8 1561.84,-132.3 1561.84,-125.3"/>
</g>
<!-- InicioComponent -->
<g id="node6" class="node">
<title>InicioComponent</title>
<polygon fill="#ffffb3" stroke="black" points="2002.99,-84.8 1889.01,-84.8 1889.01,-48.8 2002.99,-48.8 2002.99,-84.8"/>
<text text-anchor="middle" x="1946" y="-62.6" font-family="Times,serif" font-size="14.00">InicioComponent</text>
</g>
<!-- InicioComponent&#45;&gt;AppModule -->
<g id="edge6" class="edge">
<title>InicioComponent&#45;&gt;AppModule</title>
<path fill="none" stroke="black" d="M1946,-84.83C1946,-101.86 1946,-124.8 1946,-124.8 1946,-124.8 1561.81,-124.8 1561.81,-124.8"/>
<polygon fill="black" stroke="black" points="1561.81,-121.3 1551.81,-124.8 1561.81,-128.3 1561.81,-121.3"/>
</g>
<!-- MenuComponent -->
<g id="node7" class="node">
<title>MenuComponent</title>
<polygon fill="#ffffb3" stroke="black" points="1870.99,-84.8 1757.01,-84.8 1757.01,-48.8 1870.99,-48.8 1870.99,-84.8"/>
<text text-anchor="middle" x="1814" y="-62.6" font-family="Times,serif" font-size="14.00">MenuComponent</text>
</g>
<!-- MenuComponent&#45;&gt;AppModule -->
<g id="edge7" class="edge">
<title>MenuComponent&#45;&gt;AppModule</title>
<path fill="none" stroke="black" d="M1814,-84.81C1814,-100.85 1814,-121.8 1814,-121.8 1814,-121.8 1561.95,-121.8 1561.95,-121.8"/>
<polygon fill="black" stroke="black" points="1561.95,-118.3 1551.95,-121.8 1561.95,-125.3 1561.95,-118.3"/>
</g>
<!-- MenuFeedComponent -->
<g id="node8" class="node">
<title>MenuFeedComponent</title>
<polygon fill="#ffffb3" stroke="black" points="1738.7,-84.8 1597.3,-84.8 1597.3,-48.8 1738.7,-48.8 1738.7,-84.8"/>
<text text-anchor="middle" x="1668" y="-62.6" font-family="Times,serif" font-size="14.00">MenuFeedComponent</text>
</g>
<!-- MenuFeedComponent&#45;&gt;AppModule -->
<g id="edge8" class="edge">
<title>MenuFeedComponent&#45;&gt;AppModule</title>
<path fill="none" stroke="black" d="M1668,-84.92C1668,-99.58 1668,-117.8 1668,-117.8 1668,-117.8 1561.93,-117.8 1561.93,-117.8"/>
<polygon fill="black" stroke="black" points="1561.93,-114.3 1551.93,-117.8 1561.93,-121.3 1561.93,-114.3"/>
</g>
<!-- MeuPerfilComponent -->
<g id="node9" class="node">
<title>MeuPerfilComponent</title>
<polygon fill="#ffffb3" stroke="black" points="1579.09,-84.8 1440.91,-84.8 1440.91,-48.8 1579.09,-48.8 1579.09,-84.8"/>
<text text-anchor="middle" x="1510" y="-62.6" font-family="Times,serif" font-size="14.00">MeuPerfilComponent</text>
</g>
<!-- MeuPerfilComponent&#45;&gt;AppModule -->
<g id="edge9" class="edge">
<title>MeuPerfilComponent&#45;&gt;AppModule</title>
<path fill="none" stroke="black" d="M1510,-84.91C1510,-84.91 1510,-103.79 1510,-103.79"/>
<polygon fill="black" stroke="black" points="1506.5,-103.79 1510,-113.79 1513.5,-103.79 1506.5,-103.79"/>
</g>
<!-- PostagemDeleteComponent -->
<g id="node10" class="node">
<title>PostagemDeleteComponent</title>
<polygon fill="#ffffb3" stroke="black" points="1423.3,-84.8 1250.7,-84.8 1250.7,-48.8 1423.3,-48.8 1423.3,-84.8"/>
<text text-anchor="middle" x="1337" y="-62.6" font-family="Times,serif" font-size="14.00">PostagemDeleteComponent</text>
</g>
<!-- PostagemDeleteComponent&#45;&gt;AppModule -->
<g id="edge10" class="edge">
<title>PostagemDeleteComponent&#45;&gt;AppModule</title>
<path fill="none" stroke="black" d="M1337,-84.92C1337,-99.58 1337,-117.8 1337,-117.8 1337,-117.8 1458.12,-117.8 1458.12,-117.8"/>
<polygon fill="black" stroke="black" points="1458.12,-121.3 1468.12,-117.8 1458.12,-114.3 1458.12,-121.3"/>
</g>
<!-- PostagemEditComponent -->
<g id="node11" class="node">
<title>PostagemEditComponent</title>
<polygon fill="#ffffb3" stroke="black" points="1232.6,-84.8 1073.4,-84.8 1073.4,-48.8 1232.6,-48.8 1232.6,-84.8"/>
<text text-anchor="middle" x="1153" y="-62.6" font-family="Times,serif" font-size="14.00">PostagemEditComponent</text>
</g>
<!-- PostagemEditComponent&#45;&gt;AppModule -->
<g id="edge11" class="edge">
<title>PostagemEditComponent&#45;&gt;AppModule</title>
<path fill="none" stroke="black" d="M1153,-84.81C1153,-100.85 1153,-121.8 1153,-121.8 1153,-121.8 1458,-121.8 1458,-121.8"/>
<polygon fill="black" stroke="black" points="1458,-125.3 1468,-121.8 1458,-118.3 1458,-125.3"/>
</g>
<!-- RegistrarComponent -->
<g id="node12" class="node">
<title>RegistrarComponent</title>
<polygon fill="#ffffb3" stroke="black" points="1055.15,-84.8 922.85,-84.8 922.85,-48.8 1055.15,-48.8 1055.15,-84.8"/>
<text text-anchor="middle" x="989" y="-62.6" font-family="Times,serif" font-size="14.00">RegistrarComponent</text>
</g>
<!-- RegistrarComponent&#45;&gt;AppModule -->
<g id="edge12" class="edge">
<title>RegistrarComponent&#45;&gt;AppModule</title>
<path fill="none" stroke="black" d="M989,-84.83C989,-101.86 989,-124.8 989,-124.8 989,-124.8 1458.25,-124.8 1458.25,-124.8"/>
<polygon fill="black" stroke="black" points="1458.25,-128.3 1468.25,-124.8 1458.25,-121.3 1458.25,-128.3"/>
</g>
<!-- RodapeComponent -->
<g id="node13" class="node">
<title>RodapeComponent</title>
<polygon fill="#ffffb3" stroke="black" points="905.1,-84.8 780.9,-84.8 780.9,-48.8 905.1,-48.8 905.1,-84.8"/>
<text text-anchor="middle" x="843" y="-62.6" font-family="Times,serif" font-size="14.00">RodapeComponent</text>
</g>
<!-- RodapeComponent&#45;&gt;AppModule -->
<g id="edge13" class="edge">
<title>RodapeComponent&#45;&gt;AppModule</title>
<path fill="none" stroke="black" d="M843,-85.07C843,-103.36 843,-128.8 843,-128.8 843,-128.8 1458.28,-128.8 1458.28,-128.8"/>
<polygon fill="black" stroke="black" points="1458.28,-132.3 1468.28,-128.8 1458.28,-125.3 1458.28,-132.3"/>
</g>
<!-- SobreNosComponent -->
<g id="node14" class="node">
<title>SobreNosComponent</title>
<polygon fill="#ffffb3" stroke="black" points="763.04,-84.8 626.96,-84.8 626.96,-48.8 763.04,-48.8 763.04,-84.8"/>
<text text-anchor="middle" x="695" y="-62.6" font-family="Times,serif" font-size="14.00">SobreNosComponent</text>
</g>
<!-- SobreNosComponent&#45;&gt;AppModule -->
<g id="edge14" class="edge">
<title>SobreNosComponent&#45;&gt;AppModule</title>
<path fill="none" stroke="black" d="M695,-84.91C695,-104.14 695,-131.8 695,-131.8 695,-131.8 1458.18,-131.8 1458.18,-131.8"/>
<polygon fill="black" stroke="black" points="1458.18,-135.3 1468.18,-131.8 1458.18,-128.3 1458.18,-135.3"/>
</g>
<!-- TemaComponent -->
<g id="node15" class="node">
<title>TemaComponent</title>
<polygon fill="#ffffb3" stroke="black" points="608.7,-84.8 495.3,-84.8 495.3,-48.8 608.7,-48.8 608.7,-84.8"/>
<text text-anchor="middle" x="552" y="-62.6" font-family="Times,serif" font-size="14.00">TemaComponent</text>
</g>
<!-- TemaComponent&#45;&gt;AppModule -->
<g id="edge15" class="edge">
<title>TemaComponent&#45;&gt;AppModule</title>
<path fill="none" stroke="black" d="M552,-84.93C552,-105.37 552,-135.8 552,-135.8 552,-135.8 1458.22,-135.8 1458.22,-135.8"/>
<polygon fill="black" stroke="black" points="1458.22,-139.3 1468.22,-135.8 1458.22,-132.3 1458.22,-139.3"/>
</g>
<!-- TemaDeleteComponent -->
<g id="node16" class="node">
<title>TemaDeleteComponent</title>
<polygon fill="#ffffb3" stroke="black" points="477.74,-84.8 328.26,-84.8 328.26,-48.8 477.74,-48.8 477.74,-84.8"/>
<text text-anchor="middle" x="403" y="-62.6" font-family="Times,serif" font-size="14.00">TemaDeleteComponent</text>
</g>
<!-- TemaDeleteComponent&#45;&gt;AppModule -->
<g id="edge16" class="edge">
<title>TemaDeleteComponent&#45;&gt;AppModule</title>
<path fill="none" stroke="black" d="M403,-84.84C403,-106.46 403,-139.8 403,-139.8 403,-139.8 1458.29,-139.8 1458.29,-139.8"/>
<polygon fill="black" stroke="black" points="1458.29,-143.3 1468.29,-139.8 1458.29,-136.3 1458.29,-143.3"/>
</g>
<!-- TemaEditComponent -->
<g id="node17" class="node">
<title>TemaEditComponent</title>
<polygon fill="#ffffb3" stroke="black" points="310.04,-84.8 173.96,-84.8 173.96,-48.8 310.04,-48.8 310.04,-84.8"/>
<text text-anchor="middle" x="242" y="-62.6" font-family="Times,serif" font-size="14.00">TemaEditComponent</text>
</g>
<!-- TemaEditComponent&#45;&gt;AppModule -->
<g id="edge17" class="edge">
<title>TemaEditComponent&#45;&gt;AppModule</title>
<path fill="none" stroke="black" d="M242,-84.81C242,-107.29 242,-142.8 242,-142.8 242,-142.8 1458.17,-142.8 1458.17,-142.8"/>
<polygon fill="black" stroke="black" points="1458.17,-146.3 1468.17,-142.8 1458.17,-139.3 1458.17,-146.3"/>
</g>
<!-- UserEditComponent -->
<g id="node18" class="node">
<title>UserEditComponent</title>
<polygon fill="#ffffb3" stroke="black" points="155.59,-84.8 24.41,-84.8 24.41,-48.8 155.59,-48.8 155.59,-84.8"/>
<text text-anchor="middle" x="90" y="-62.6" font-family="Times,serif" font-size="14.00">UserEditComponent</text>
</g>
<!-- UserEditComponent&#45;&gt;AppModule -->
<g id="edge18" class="edge">
<title>UserEditComponent&#45;&gt;AppModule</title>
<path fill="none" stroke="black" d="M90,-84.95C90,-108.56 90,-146.8 90,-146.8 90,-146.8 1458.27,-146.8 1458.27,-146.8"/>
<polygon fill="black" stroke="black" points="1458.27,-150.3 1468.27,-146.8 1458.27,-143.3 1458.27,-150.3"/>
</g>
<!-- AppComponent  -->
<g id="node21" class="node">
<title>AppComponent </title>
<polygon fill="#80b1d3" stroke="black" points="1564.44,-214.8 1455.56,-214.8 1455.56,-178.8 1564.44,-178.8 1564.44,-214.8"/>
<text text-anchor="middle" x="1510" y="-192.6" font-family="Times,serif" font-size="14.00">AppComponent </text>
</g>
<!-- AppModule&#45;&gt;AppComponent  -->
<g id="edge20" class="edge">
<title>AppModule&#45;&gt;AppComponent </title>
<path fill="none" stroke="black" stroke-dasharray="1,5" d="M1510,-149.91C1510,-149.91 1510,-168.79 1510,-168.79"/>
<polygon fill="black" stroke="black" points="1506.5,-168.79 1510,-178.79 1513.5,-168.79 1506.5,-168.79"/>
</g>
<!-- AppRoutingModule -->
<g id="node20" class="node">
<title>AppRoutingModule</title>
<polygon fill="#8dd3c7" stroke="black" points="2828.27,-84.8 2825.27,-88.8 2804.27,-88.8 2801.27,-84.8 2699.73,-84.8 2699.73,-48.8 2828.27,-48.8 2828.27,-84.8"/>
<text text-anchor="middle" x="2764" y="-62.6" font-family="Times,serif" font-size="14.00">AppRoutingModule</text>
</g>
<!-- AppRoutingModule&#45;&gt;AppModule -->
<g id="edge19" class="edge">
<title>AppRoutingModule&#45;&gt;AppModule</title>
<path fill="none" stroke="black" d="M2764,-84.95C2764,-108.56 2764,-146.8 2764,-146.8 2764,-146.8 1561.72,-146.8 1561.72,-146.8"/>
<polygon fill="black" stroke="black" points="1561.72,-143.3 1551.72,-146.8 1561.72,-150.3 1561.72,-143.3"/>
</g>
</g>
</svg>
