<?xml version="1.0" encoding="UTF-8" standalone="no"?>
<!DOCTYPE svg PUBLIC "-//W3C//DTD SVG 1.1//EN"
 "http://www.w3.org/Graphics/SVG/1.1/DTD/svg11.dtd">
<!-- Generated by graphviz version 2.47.3 (20210619.1520)
 -->
<!-- Title: dependencies Pages: 1 -->
<svg width="2104pt" height="247pt"
 viewBox="0.00 0.00 2104.00 246.80" xmlns="http://www.w3.org/2000/svg" xmlns:xlink="http://www.w3.org/1999/xlink">
<g id="graph0" class="graph" transform="scale(1 1) rotate(0) translate(4 242.8)">
<title>dependencies</title>
<polygon fill="white" stroke="transparent" points="-4,4 -4,-242.8 2100,-242.8 2100,4 -4,4"/>
<text text-anchor="middle" x="1048" y="-8.2" font-family="sans-serif" font-size="14.00">dependencies</text>
<g id="clust1" class="cluster">
<title>cluster_AppModule</title>
<polygon fill="none" stroke="black" stroke-dasharray="1,5" points="8,-32.8 8,-230.8 2088,-230.8 2088,-32.8 8,-32.8"/>
</g>
<g id="clust16" class="cluster">
<title>cluster_AppModule_imports</title>
<polygon fill="none" stroke="black" points="1936,-40.8 1936,-92.8 2080,-92.8 2080,-40.8 1936,-40.8"/>
</g>
<g id="clust18" class="cluster">
<title>cluster_AppModule_bootstrap</title>
<polygon fill="none" stroke="black" points="1056,-170.8 1056,-222.8 1180,-222.8 1180,-170.8 1056,-170.8"/>
</g>
<g id="clust2" class="cluster">
<title>cluster_AppModule_declarations</title>
<polygon fill="none" stroke="black" points="16,-40.8 16,-92.8 1928,-92.8 1928,-40.8 16,-40.8"/>
</g>
<!-- AlertsComponent -->
<g id="node1" class="node">
<title>AlertsComponent</title>
<polygon fill="#ffffb3" stroke="black" points="1919.54,-84.8 1804.46,-84.8 1804.46,-48.8 1919.54,-48.8 1919.54,-84.8"/>
<text text-anchor="middle" x="1862" y="-62.6" font-family="Times,serif" font-size="14.00">AlertsComponent</text>
</g>
<!-- AppModule -->
<g id="node14" class="node">
<title>AppModule</title>
<polygon fill="#8dd3c7" stroke="black" points="1159.66,-149.8 1156.66,-153.8 1135.66,-153.8 1132.66,-149.8 1076.34,-149.8 1076.34,-113.8 1159.66,-113.8 1159.66,-149.8"/>
<text text-anchor="middle" x="1118" y="-127.6" font-family="Times,serif" font-size="14.00">AppModule</text>
</g>
<!-- AlertsComponent&#45;&gt;AppModule -->
<g id="edge1" class="edge">
<title>AlertsComponent&#45;&gt;AppModule</title>
<path fill="none" stroke="black" d="M1862,-84.84C1862,-106.46 1862,-139.8 1862,-139.8 1862,-139.8 1169.86,-139.8 1169.86,-139.8"/>
<polygon fill="black" stroke="black" points="1169.86,-136.3 1159.86,-139.8 1169.86,-143.3 1169.86,-136.3"/>
</g>
<!-- AppComponent -->
<g id="node2" class="node">
<title>AppComponent</title>
<polygon fill="#ffffb3" stroke="black" points="1786.94,-84.8 1681.06,-84.8 1681.06,-48.8 1786.94,-48.8 1786.94,-84.8"/>
<text text-anchor="middle" x="1734" y="-62.6" font-family="Times,serif" font-size="14.00">AppComponent</text>
</g>
<!-- AppComponent&#45;&gt;AppModule -->
<g id="edge2" class="edge">
<title>AppComponent&#45;&gt;AppModule</title>
<path fill="none" stroke="black" d="M1734,-85.02C1734,-105.17 1734,-134.8 1734,-134.8 1734,-134.8 1169.86,-134.8 1169.86,-134.8"/>
<polygon fill="black" stroke="black" points="1169.86,-131.3 1159.86,-134.8 1169.86,-138.3 1169.86,-131.3"/>
</g>
<!-- FooterComponent -->
<g id="node3" class="node">
<title>FooterComponent</title>
<polygon fill="#ffffb3" stroke="black" points="1662.88,-84.8 1545.12,-84.8 1545.12,-48.8 1662.88,-48.8 1662.88,-84.8"/>
<text text-anchor="middle" x="1604" y="-62.6" font-family="Times,serif" font-size="14.00">FooterComponent</text>
</g>
<!-- FooterComponent&#45;&gt;AppModule -->
<g id="edge3" class="edge">
<title>FooterComponent&#45;&gt;AppModule</title>
<path fill="none" stroke="black" d="M1604,-85.02C1604,-103.63 1604,-129.8 1604,-129.8 1604,-129.8 1169.86,-129.8 1169.86,-129.8"/>
<polygon fill="black" stroke="black" points="1169.86,-126.3 1159.86,-129.8 1169.86,-133.3 1169.86,-126.3"/>
</g>
<!-- HeaderComponent -->
<g id="node4" class="node">
<title>HeaderComponent</title>
<polygon fill="#ffffb3" stroke="black" points="1526.74,-84.8 1405.26,-84.8 1405.26,-48.8 1526.74,-48.8 1526.74,-84.8"/>
<text text-anchor="middle" x="1466" y="-62.6" font-family="Times,serif" font-size="14.00">HeaderComponent</text>
</g>
<!-- HeaderComponent&#45;&gt;AppModule -->
<g id="edge4" class="edge">
<title>HeaderComponent&#45;&gt;AppModule</title>
<path fill="none" stroke="black" d="M1466,-84.83C1466,-101.86 1466,-124.8 1466,-124.8 1466,-124.8 1169.98,-124.8 1169.98,-124.8"/>
<polygon fill="black" stroke="black" points="1169.98,-121.3 1159.98,-124.8 1169.98,-128.3 1169.98,-121.3"/>
</g>
<!-- HomeComponent -->
<g id="node5" class="node">
<title>HomeComponent</title>
<polygon fill="#ffffb3" stroke="black" points="1386.55,-84.8 1271.45,-84.8 1271.45,-48.8 1386.55,-48.8 1386.55,-84.8"/>
<text text-anchor="middle" x="1329" y="-62.6" font-family="Times,serif" font-size="14.00">HomeComponent</text>
</g>
<!-- HomeComponent&#45;&gt;AppModule -->
<g id="edge5" class="edge">
<title>HomeComponent&#45;&gt;AppModule</title>
<path fill="none" stroke="black" d="M1329,-85.04C1329,-100.37 1329,-119.8 1329,-119.8 1329,-119.8 1169.69,-119.8 1169.69,-119.8"/>
<polygon fill="black" stroke="black" points="1169.69,-116.3 1159.69,-119.8 1169.69,-123.3 1169.69,-116.3"/>
</g>
<!-- LoginComponent -->
<g id="node6" class="node">
<title>LoginComponent</title>
<polygon fill="#ffffb3" stroke="black" points="1253.28,-84.8 1138.72,-84.8 1138.72,-48.8 1253.28,-48.8 1253.28,-84.8"/>
<text text-anchor="middle" x="1196" y="-62.6" font-family="Times,serif" font-size="14.00">LoginComponent</text>
</g>
<!-- LoginComponent&#45;&gt;AppModule -->
<g id="edge6" class="edge">
<title>LoginComponent&#45;&gt;AppModule</title>
<path fill="none" stroke="black" d="M1149.22,-84.91C1149.22,-84.91 1149.22,-103.79 1149.22,-103.79"/>
<polygon fill="black" stroke="black" points="1145.72,-103.79 1149.22,-113.79 1152.72,-103.79 1145.72,-103.79"/>
</g>
<!-- PostageDeleteComponent -->
<g id="node7" class="node">
<title>PostageDeleteComponent</title>
<polygon fill="#ffffb3" stroke="black" points="1120.91,-84.8 959.09,-84.8 959.09,-48.8 1120.91,-48.8 1120.91,-84.8"/>
<text text-anchor="middle" x="1040" y="-62.6" font-family="Times,serif" font-size="14.00">PostageDeleteComponent</text>
</g>
<!-- PostageDeleteComponent&#45;&gt;AppModule -->
<g id="edge7" class="edge">
<title>PostageDeleteComponent&#45;&gt;AppModule</title>
<path fill="none" stroke="black" d="M1098.44,-84.91C1098.44,-84.91 1098.44,-103.79 1098.44,-103.79"/>
<polygon fill="black" stroke="black" points="1094.94,-103.79 1098.44,-113.79 1101.94,-103.79 1094.94,-103.79"/>
</g>
<!-- PostageEditComponent -->
<g id="node8" class="node">
<title>PostageEditComponent</title>
<polygon fill="#ffffb3" stroke="black" points="941.21,-84.8 792.79,-84.8 792.79,-48.8 941.21,-48.8 941.21,-84.8"/>
<text text-anchor="middle" x="867" y="-62.6" font-family="Times,serif" font-size="14.00">PostageEditComponent</text>
</g>
<!-- PostageEditComponent&#45;&gt;AppModule -->
<g id="edge8" class="edge">
<title>PostageEditComponent&#45;&gt;AppModule</title>
<path fill="none" stroke="black" d="M867,-85.04C867,-100.37 867,-119.8 867,-119.8 867,-119.8 1066.27,-119.8 1066.27,-119.8"/>
<polygon fill="black" stroke="black" points="1066.27,-123.3 1076.27,-119.8 1066.27,-116.3 1066.27,-123.3"/>
</g>
<!-- RegisterComponent -->
<g id="node9" class="node">
<title>RegisterComponent</title>
<polygon fill="#ffffb3" stroke="black" points="774.98,-84.8 647.02,-84.8 647.02,-48.8 774.98,-48.8 774.98,-84.8"/>
<text text-anchor="middle" x="711" y="-62.6" font-family="Times,serif" font-size="14.00">RegisterComponent</text>
</g>
<!-- RegisterComponent&#45;&gt;AppModule -->
<g id="edge9" class="edge">
<title>RegisterComponent&#45;&gt;AppModule</title>
<path fill="none" stroke="black" d="M711,-84.83C711,-101.86 711,-124.8 711,-124.8 711,-124.8 1065.98,-124.8 1065.98,-124.8"/>
<polygon fill="black" stroke="black" points="1065.98,-128.3 1075.98,-124.8 1065.98,-121.3 1065.98,-128.3"/>
</g>
<!-- ThemeComponent -->
<g id="node10" class="node">
<title>ThemeComponent</title>
<polygon fill="#ffffb3" stroke="black" points="629.2,-84.8 508.8,-84.8 508.8,-48.8 629.2,-48.8 629.2,-84.8"/>
<text text-anchor="middle" x="569" y="-62.6" font-family="Times,serif" font-size="14.00">ThemeComponent</text>
</g>
<!-- ThemeComponent&#45;&gt;AppModule -->
<g id="edge10" class="edge">
<title>ThemeComponent&#45;&gt;AppModule</title>
<path fill="none" stroke="black" d="M569,-85.02C569,-103.63 569,-129.8 569,-129.8 569,-129.8 1066.29,-129.8 1066.29,-129.8"/>
<polygon fill="black" stroke="black" points="1066.29,-133.3 1076.29,-129.8 1066.29,-126.3 1066.29,-133.3"/>
</g>
<!-- ThemeDeleteComponent -->
<g id="node11" class="node">
<title>ThemeDeleteComponent</title>
<polygon fill="#ffffb3" stroke="black" points="491.24,-84.8 334.76,-84.8 334.76,-48.8 491.24,-48.8 491.24,-84.8"/>
<text text-anchor="middle" x="413" y="-62.6" font-family="Times,serif" font-size="14.00">ThemeDeleteComponent</text>
</g>
<!-- ThemeDeleteComponent&#45;&gt;AppModule -->
<g id="edge11" class="edge">
<title>ThemeDeleteComponent&#45;&gt;AppModule</title>
<path fill="none" stroke="black" d="M413,-85.02C413,-105.17 413,-134.8 413,-134.8 413,-134.8 1066.27,-134.8 1066.27,-134.8"/>
<polygon fill="black" stroke="black" points="1066.27,-138.3 1076.27,-134.8 1066.27,-131.3 1066.27,-138.3"/>
</g>
<!-- ThemeEditComponent -->
<g id="node12" class="node">
<title>ThemeEditComponent</title>
<polygon fill="#ffffb3" stroke="black" points="316.54,-84.8 173.46,-84.8 173.46,-48.8 316.54,-48.8 316.54,-84.8"/>
<text text-anchor="middle" x="245" y="-62.6" font-family="Times,serif" font-size="14.00">ThemeEditComponent</text>
</g>
<!-- ThemeEditComponent&#45;&gt;AppModule -->
<g id="edge12" class="edge">
<title>ThemeEditComponent&#45;&gt;AppModule</title>
<path fill="none" stroke="black" d="M245,-84.84C245,-106.46 245,-139.8 245,-139.8 245,-139.8 1066.19,-139.8 1066.19,-139.8"/>
<polygon fill="black" stroke="black" points="1066.19,-143.3 1076.19,-139.8 1066.19,-136.3 1066.19,-143.3"/>
</g>
<!-- UserEditComponent -->
<g id="node13" class="node">
<title>UserEditComponent</title>
<polygon fill="#ffffb3" stroke="black" points="155.59,-84.8 24.41,-84.8 24.41,-48.8 155.59,-48.8 155.59,-84.8"/>
<text text-anchor="middle" x="90" y="-62.6" font-family="Times,serif" font-size="14.00">UserEditComponent</text>
</g>
<!-- UserEditComponent&#45;&gt;AppModule -->
<g id="edge13" class="edge">
<title>UserEditComponent&#45;&gt;AppModule</title>
<path fill="none" stroke="black" d="M90,-84.89C90,-107.93 90,-144.8 90,-144.8 90,-144.8 1066.11,-144.8 1066.11,-144.8"/>
<polygon fill="black" stroke="black" points="1066.11,-148.3 1076.11,-144.8 1066.11,-141.3 1066.11,-148.3"/>
</g>
<!-- AppComponent  -->
<g id="node16" class="node">
<title>AppComponent </title>
<polygon fill="#80b1d3" stroke="black" points="1172.44,-214.8 1063.56,-214.8 1063.56,-178.8 1172.44,-178.8 1172.44,-214.8"/>
<text text-anchor="middle" x="1118" y="-192.6" font-family="Times,serif" font-size="14.00">AppComponent </text>
</g>
<!-- AppModule&#45;&gt;AppComponent  -->
<g id="edge15" class="edge">
<title>AppModule&#45;&gt;AppComponent </title>
<path fill="none" stroke="black" stroke-dasharray="1,5" d="M1118,-149.91C1118,-149.91 1118,-168.79 1118,-168.79"/>
<polygon fill="black" stroke="black" points="1114.5,-168.79 1118,-178.79 1121.5,-168.79 1114.5,-168.79"/>
</g>
<!-- AppRoutingModule -->
<g id="node15" class="node">
<title>AppRoutingModule</title>
<polygon fill="#8dd3c7" stroke="black" points="2072.27,-84.8 2069.27,-88.8 2048.27,-88.8 2045.27,-84.8 1943.73,-84.8 1943.73,-48.8 2072.27,-48.8 2072.27,-84.8"/>
<text text-anchor="middle" x="2008" y="-62.6" font-family="Times,serif" font-size="14.00">AppRoutingModule</text>
</g>
<!-- AppRoutingModule&#45;&gt;AppModule -->
<g id="edge14" class="edge">
<title>AppRoutingModule&#45;&gt;AppModule</title>
<path fill="none" stroke="black" d="M2008,-84.89C2008,-107.93 2008,-144.8 2008,-144.8 2008,-144.8 1169.73,-144.8 1169.73,-144.8"/>
<polygon fill="black" stroke="black" points="1169.73,-141.3 1159.73,-144.8 1169.73,-148.3 1169.73,-141.3"/>
</g>
</g>
</svg>
